<?xml version="1.0" ?><!DOCTYPE svg  PUBLIC '-//W3C//DTD SVG 1.1//EN'  'http://www.w3.org/Graphics/SVG/1.1/DTD/svg11.dtd'><svg enable-background="new 0 0 512 512" height="512px" id="Layer_1" version="1.1" viewBox="0 0 512 512" width="512px" xml:space="preserve" xmlns="http://www.w3.org/2000/svg" xmlns:xlink="http://www.w3.org/1999/xlink"><path d="M492.159,218.742c-22.448,21.833-29.478,76.038-58.582,100.232c-17.402,14.467-68.683,18.653-109.842,7.406  c-36.924-10.09-37.413-65.611-65.905-76.117l0,0c-32.186,7.267-31.12,65.611-69.566,76.117  c-41.158,11.247-92.439,7.061-109.842-7.406c-29.104-24.194-36.135-78.399-58.582-100.232C6.254,205.528,1.996,197.672,2,192.942  c0.006-6.158,7.235-7.022,10.519-7.521c0,0,106.602-26.419,216.021,29.619c11.331,5.803,20.996,8.199,29.291,9.25l0,0  c7.451-1.394,15.922-4.277,25.629-9.25c109.421-56.039,216.021-29.619,216.021-29.619c3.305,0.502,10.603,1.375,10.519,7.636  C509.936,197.8,505.636,205.635,492.159,218.742z M208.101,231.52c-13.116-18.344-87.43-42.396-132.673-34.768  c-33.619,5.668-25.635,38.482-6.817,87.412c17.661,45.918,97.872,37.689,122.448,24.337  C215.635,295.151,221.217,249.864,208.101,231.52z M436.573,196.752c-45.243-7.628-119.557,16.424-132.673,34.768  s-7.534,63.632,17.042,76.981c24.576,13.35,104.788,21.581,122.447-24.337C462.208,235.233,470.191,202.419,436.573,196.752z"/></svg>